<?xml version="1.0" encoding="UTF-8" standalone="no"?>
<svg
   width="1088"
   height="687.962"
   viewBox="0 0 1088 687.962"
   version="1.1"
   id="svg1"
   sodipodi:docname="undraw_docusaurus_mountain.svg"
   inkscape:version="1.3.2 (091e20e, 2023-11-25)"
   xmlns:inkscape="http://www.inkscape.org/namespaces/inkscape"
   xmlns:sodipodi="http://sodipodi.sourceforge.net/DTD/sodipodi-0.dtd"
   xmlns="http://www.w3.org/2000/svg"
   xmlns:svg="http://www.w3.org/2000/svg">
  <defs
     id="defs1" />
  <sodipodi:namedview
     id="namedview1"
     pagecolor="#ffffff"
     bordercolor="#000000"
     borderopacity="0.25"
     inkscape:showpageshadow="2"
     inkscape:pageopacity="0.0"
     inkscape:pagecheckerboard="0"
     inkscape:deskcolor="#d1d1d1"
     inkscape:zoom="0.34304222"
     inkscape:cx="542.20732"
     inkscape:cy="343.98099"
     inkscape:window-width="1600"
     inkscape:window-height="847"
     inkscape:window-x="36"
     inkscape:window-y="25"
     inkscape:window-maximized="1"
     inkscape:current-layer="Group_12" />
  <title
     id="title1">Easy to Use</title>
  <g
     id="Group_12"
     data-name="Group 12"
     transform="translate(-57 -56)">
    <g
       id="g3"
       transform="matrix(14.298154,0,0,14.298154,271.96223,64.132047)">
      <rect
         width="48"
         height="48"
         fill="#ffffff"
         fill-opacity="0.01"
         id="rect1"
         x="0"
         y="0" />
      <path
         d="m 38,21 5,9 -5,1 v 6 h -3 l -6,-1 -1,7 H 13 L 11,32.619 C 7.92077,29.7028 6,25.5757 6,21 6,12.1634 13.1634,5 22,5 c 8.8366,0 16,7.1634 16,16 z"
         fill="#2F88FF"
         stroke="#000000"
         stroke-width="4"
         stroke-linecap="round"
         stroke-linejoin="round"
         id="path1"
         style="fill:#ffffff;stroke:#3f3d56;stroke-opacity:1" />
      <path
         d="m 17,19 c 0,-2.7614 2.2386,-5 5,-5 2.7614,0 5,2.2386 5,5 0,2.7614 -2.2386,5 -5,5 v 3"
         stroke="white"
         stroke-width="4"
         stroke-linecap="round"
         stroke-linejoin="round"
         id="path2"
         style="fill:none;fill-opacity:1;stroke:#3f3d56;stroke-opacity:1" />
      <path
         d="m 22,33 v 1"
         stroke="white"
         stroke-width="4"
         stroke-linecap="round"
         stroke-linejoin="round"
         id="path3"
         style="fill:none;fill-opacity:1;stroke:#3f3d56;stroke-opacity:1" />
    </g>
  </g>
</svg>
